# xmcd
#
# Track frame offsets: 
#        150
#        22105
#        41042
#        55880
#        69313
#        88003
#        119988
#        138683
#        159833
#        180127
#        200829
#        217345
#        234434
#        257814
#        273002
#        299044
#
# Disc length: 4182 seconds
#
# Revision: 2
# Processed by: cddbd v1.5.2PL0 Copyright (c) Steve Scherf et al.
# Submitted via: ExactAudioCopy v0.99pb5
#
DISCID=fc105410
DTITLE=Various Artist - Reference Sound Edition - Great Voices Vol. 2
DYEAR=2012
DGENRE=Ballad
TTITLE0=Naomi Sommers - Hypnotizing
TTITLE1=Greg Brown - Blue Car
TTITLE2=Lisa Doby - Hold On
TTITLE3=Jenni Muldaur - There Is Another Place That I Can´t Go
TTITLE4=Friend´n Fellow - Clocks
TTITLE5=Hank Shizzoe - Handemade Love
TTITLE6=Meg Hutchinson - I´d Like To Know
TTITLE7=Tracy Bonham - Big Red Heart
TTITLE8=Raya Yarbrough - Lord Knows I Would
TTITLE9=Jenee Hastead - Deep dark Sea
TTITLE10=Eric Lindell - Mind Your Business
TTITLE11=Kendel Carson - Lady K
TTITLE12=Jeffrey Foucault - Wild Waste And Welter
TTITLE13=Tish Hinojosa - What Our Hearts Can´t Say
TTITLE14=Cliff Eberhardt - The Long Road
TTITLE15=Roxanne Potvin - Don´t Pay Attention
EXTD=
EXTT0=
EXTT1=
EXTT2=
EXTT3=
EXTT4=
EXTT5=
EXTT6=
EXTT7=
EXTT8=
EXTT9=
EXTT10=
EXTT11=
EXTT12=
EXTT13=
EXTT14=
EXTT15=
PLAYORDER=
